<svg xmlns="http://www.w3.org/2000/svg" width="101" height="70.316" viewBox="0 0 101 70.316"><defs><style>.a{fill:none;stroke:#5e347c;}</style></defs><g transform="translate(0.5 0.5)"><path class="a" d="M3.021,63.8C21.037,52.614,26.605,41.432,28.2,34.384H14.5A14.5,14.5,0,0,1,0,19.885V14.5A14.5,14.5,0,0,1,14.5,0H28.19a14.5,14.5,0,0,1,14.5,14.5v5.385a14.511,14.511,0,0,1-.556,3.99,55.807,55.807,0,0,1,.556,6.847C43.51,59.446,6.784,69.214,6.784,69.214S6.449,68.239,3.021,63.8Z" transform="translate(57.296)"/><path class="a" d="M3.021,63.8C21.037,52.614,26.605,41.432,28.2,34.384H14.5A14.5,14.5,0,0,1,0,19.885V14.5A14.5,14.5,0,0,1,14.5,0H28.19a14.5,14.5,0,0,1,14.5,14.5v5.385a14.511,14.511,0,0,1-.556,3.99,55.807,55.807,0,0,1,.556,6.847C43.51,59.446,6.784,69.214,6.784,69.214S6.449,68.239,3.021,63.8Z"/></g></svg>