<svg xmlns="http://www.w3.org/2000/svg" width="8.891" height="16.445" viewBox="0 0 8.891 16.445"><defs><style>.a{fill:#ffb300;}</style></defs><g transform="translate(-766 -1281)"><path class="a" d="M30.633,0,28.5,0a3.745,3.745,0,0,0-3.944,4.047V5.913H22.412a.335.335,0,0,0-.335.335v2.7a.335.335,0,0,0,.335.335h2.144V16.11a.335.335,0,0,0,.335.335h2.8a.335.335,0,0,0,.335-.335V9.288h2.507a.335.335,0,0,0,.335-.335v-2.7a.336.336,0,0,0-.335-.335H28.025V4.331c0-.76.181-1.146,1.172-1.146h1.437a.335.335,0,0,0,.335-.335V.339A.335.335,0,0,0,30.633,0Z" transform="translate(743.923 1281)"/></g></svg>