<svg xmlns="http://www.w3.org/2000/svg" width="14.54" height="14.54" viewBox="0 0 14.54 14.54"><defs><style>.a{fill:#fff;}</style></defs><g transform="translate(-883.395 -1282.534)"><path class="a" d="M10.209,0H4.331A4.338,4.338,0,0,0,0,4.331v5.877A4.338,4.338,0,0,0,4.331,14.54h5.877a4.338,4.338,0,0,0,4.331-4.331V4.331A4.338,4.338,0,0,0,10.209,0Zm2.871,10.209a2.872,2.872,0,0,1-2.871,2.871H4.331A2.872,2.872,0,0,1,1.46,10.209V4.331A2.872,2.872,0,0,1,4.331,1.46h5.877a2.872,2.872,0,0,1,2.871,2.871v5.877Z" transform="translate(883.395 1282.534)"/><path class="a" d="M81.362,77.6a3.762,3.762,0,1,0,3.762,3.762A3.764,3.764,0,0,0,81.362,77.6Zm0,6.058a2.3,2.3,0,1,1,2.3-2.3A2.3,2.3,0,0,1,81.362,83.658Z" transform="translate(809.303 1208.442)"/><ellipse class="a" cx="0.9" cy="0.9" rx="0.9" ry="0.9" transform="translate(893.531 1285.17)"/></g></svg>