<svg xmlns="http://www.w3.org/2000/svg" width="84.415" height="19.703" viewBox="0 0 84.415 19.703"><defs><style>.a{fill:#ffbd31;}</style></defs><path class="a" d="M448,154.161a2.607,2.607,0,0,0-2.573,2.573l.026,8.743a2.621,2.621,0,0,0,2.573,2.6,2.589,2.589,0,0,0,2.573-2.6l-.026-8.743A2.576,2.576,0,0,0,448,154.161" transform="translate(-388.239 -148.374)"/><path class="a" d="M573.126,205.816a2.3,2.3,0,1,1-2.324,2.3,2.288,2.288,0,0,1,2.324-2.3" transform="translate(-491.035 -190.726)"/><path class="a" d="M233.988,154.145a5.234,5.234,0,0,0-3.93,1.709,4.646,4.646,0,0,0-3.716-1.69,4.414,4.414,0,0,0-3.3,1.31,2.822,2.822,0,0,0-2.264-1.3A2.635,2.635,0,0,0,218.2,156.8v8.663a2.621,2.621,0,0,0,2.573,2.6,2.589,2.589,0,0,0,2.573-2.6v-5.75a1.617,1.617,0,0,1,1.464-.895c.494,0,1.11.184,1.11,1.327v5.319a2.589,2.589,0,0,0,2.573,2.6,2.621,2.621,0,0,0,2.573-2.6V159.69a1.585,1.585,0,0,1,1.464-.856c.494,0,1.082.174,1.082,1.339v5.291a2.589,2.589,0,0,0,2.573,2.6,2.621,2.621,0,0,0,2.573-2.6v-6.192a4.955,4.955,0,0,0-4.772-5.127" transform="translate(-201.944 -148.361)"/><path class="a" d="M348.086,122.131h-5.048a2.566,2.566,0,0,0-2.567,2.567v14.552a2.566,2.566,0,0,0,2.567,2.567h5.048a9.842,9.842,0,0,0,0-19.685Zm0,14.552H345.6v-9.418h2.482a4.709,4.709,0,0,1,0,9.418Z" transform="translate(-302.19 -122.113)"/><path class="a" d="M454.373,122.033h-6.413a2.478,2.478,0,0,0,0,4.955h6.413a2.478,2.478,0,0,0,0-4.955Zm-.113,4.6a2.123,2.123,0,1,1,2.145-2.123A2.112,2.112,0,0,1,454.261,126.634Z" transform="translate(-388.288 -122.033)"/><path class="a" d="M495.165,149.512a2.566,2.566,0,0,0-1.912.887,7.376,7.376,0,1,0,.005,12.976,2.555,2.555,0,0,0,1.907.89,2.589,2.589,0,0,0,2.573-2.6v-9.581A2.576,2.576,0,0,0,495.165,149.512Zm-5.417,9.62a2.243,2.243,0,1,1,2.244-2.243A2.246,2.246,0,0,1,489.749,159.132Z" transform="translate(-418.533 -144.563)"/><path class="a" d="M140.316,151.353a7.258,7.258,0,0,0-4.722-1.951,7.351,7.351,0,0,0-5.372,12.681,8.688,8.688,0,0,0,9.8,1.033,2.518,2.518,0,0,0,1.276-2.078,2.005,2.005,0,0,0-.975-1.791,2.3,2.3,0,0,0-2.384.127,3.942,3.942,0,0,1-2.229.743,3.632,3.632,0,0,1-3.18-1.813h8.428a1.5,1.5,0,0,0,1.184-.639,2.868,2.868,0,0,0,.483-1.674A6.893,6.893,0,0,0,140.316,151.353Zm-7.494,3.623a2.777,2.777,0,0,1,2.7-2.033,2.706,2.706,0,0,1,2.526,2.033Z" transform="translate(-127.929 -144.469)"/></svg>