<svg xmlns="http://www.w3.org/2000/svg" width="71.043" height="16.984" viewBox="0 0 71.043 16.984"><defs><style>.a{fill:#4f236d;}.b{fill:#ffbd31;}</style></defs><g transform="translate(-127.929 -120.923)"><g transform="translate(127.929 120.923)"><path class="a" d="M447.373,153.344a2.193,2.193,0,0,0-2.146,2.182l.083,7.354a2.205,2.205,0,0,0,2.182,2.169,2.178,2.178,0,0,0,2.146-2.205l-.083-7.354a2.167,2.167,0,0,0-2.182-2.146" transform="translate(-397.154 -148.431)"/><path class="b" d="M572.96,203.958a1.935,1.935,0,1,1-1.939,1.952,1.924,1.924,0,0,1,1.939-1.952" transform="translate(-503.889 -191.377)"/><path class="a" d="M231.278,154.618a4.4,4.4,0,0,0-3.294,1.465,3.908,3.908,0,0,0-3.138-1.4,3.712,3.712,0,0,0-2.767,1.125,2.374,2.374,0,0,0-1.914-1.077,2.217,2.217,0,0,0-2.146,2.228l.061,7.287a2.2,2.2,0,0,0,2.182,2.169,2.178,2.178,0,0,0,2.146-2.205l-.041-4.837a1.36,1.36,0,0,1,1.225-.763c.415,0,.935.147.943,1.108l.037,4.474a2.178,2.178,0,0,0,2.182,2.169,2.2,2.2,0,0,0,2.146-2.205l-.041-4.857a1.333,1.333,0,0,1,1.226-.73c.415,0,.912.138.92,1.118l.037,4.451a2.178,2.178,0,0,0,2.182,2.169,2.2,2.2,0,0,0,2.146-2.205l-.044-5.208a4.168,4.168,0,0,0-4.051-4.279" transform="translate(-204.37 -149.513)"/><path class="a" d="M346.4,121.958l-4.246.036a2.159,2.159,0,0,0-2.141,2.177l.1,12.24a2.159,2.159,0,0,0,2.177,2.141l4.246-.036a8.279,8.279,0,0,0-.139-16.558Zm.1,12.24-2.087.017-.066-7.922,2.087-.018a3.961,3.961,0,0,1,.066,7.923Z" transform="translate(-307.877 -121.801)"/><path class="a" d="M452.474,120.923l-5.394.045a2.084,2.084,0,1,0,.035,4.168l5.394-.045a2.084,2.084,0,1,0-.035-4.168" transform="translate(-396.971 -120.923)"/><path class="b" d="M483.657,126.468a1.786,1.786,0,1,1,1.789-1.8,1.776,1.776,0,0,1-1.789,1.8" transform="translate(-428.217 -122.597)"/><path class="a" d="M493.067,147.911a2.158,2.158,0,0,0-1.6.76,6.205,6.205,0,1,0,.1,10.915,2.149,2.149,0,0,0,1.61.735,2.178,2.178,0,0,0,2.146-2.205l-.068-8.059A2.166,2.166,0,0,0,493.067,147.911Zm-4.489,8.13a1.887,1.887,0,1,1,1.872-1.9A1.889,1.889,0,0,1,488.579,156.041Z" transform="translate(-428.658 -143.822)"/><path class="a" d="M138.31,152.625a6.1,6.1,0,0,0-3.985-1.608,6.183,6.183,0,0,0-4.429,10.7,7.308,7.308,0,0,0,8.252.8,2.118,2.118,0,0,0,1.059-1.757,1.688,1.688,0,0,0-.833-1.5,1.938,1.938,0,0,0-2,.124,3.317,3.317,0,0,1-1.87.641,3.055,3.055,0,0,1-2.688-1.5l7.09-.059a1.263,1.263,0,0,0,.991-.546,2.414,2.414,0,0,0,.395-1.412A5.8,5.8,0,0,0,138.31,152.625Zm-6.278,3.1A2.336,2.336,0,0,1,134.288,154a2.276,2.276,0,0,1,2.139,1.693Z" transform="translate(-127.929 -146.455)"/></g></g></svg>