<svg xmlns="http://www.w3.org/2000/svg" width="91" height="91" viewBox="0 0 91 91"><defs><style>.a,.b,.c,.f,.g{fill:none;}.b,.c,.f{stroke:#ffb300;}.b,.c,.f,.g{stroke-linecap:round;stroke-linejoin:round;}.b{stroke-width:2px;}.c{stroke-width:2.5px;}.d{fill:#fff;}.e{fill:#ffb300;}.f,.g{stroke-width:1.5px;}.g{stroke:#fff;}</style></defs><rect class="a" width="91" height="91"/><g transform="translate(13 8)"><g transform="translate(22.341 10.211)"><path class="b" d="M159.127,52.119a5.555,5.555,0,0,0-5.555-5.555H131.708a5.554,5.554,0,0,0-5.554,5.555V53.1h32.973Z" transform="translate(-126.154 -46.564)"/><path class="b" d="M126.154,98.557a5.554,5.554,0,0,0,5.554,5.555h21.865a5.555,5.555,0,0,0,5.555-5.555V93.013H126.154Z" transform="translate(-126.154 -38.624)"/><path class="b" d="M159.127,66.737V52.146H126.154v3.048" transform="translate(-126.154 -45.61)"/><line class="b" y1="9.559" transform="translate(32.974 31.084)"/><path class="b" d="M126.154,88.262v5.562h32.974V88.262" transform="translate(-126.154 -39.436)"/><line class="c" x2="0.744" transform="translate(17.286 59.507)"/></g><g transform="translate(0 26.252)"><rect class="d" width="34.517" height="25.283" transform="translate(4.684 5.086)"/><rect class="d" width="39.999" height="25.685" rx="1.296"/><path class="b" d="M107.074,77.552V61.78a1.517,1.517,0,0,1,1.516-1.516h36.965a1.517,1.517,0,0,1,1.518,1.516V84.432a1.517,1.517,0,0,1-1.518,1.516H108.59a1.517,1.517,0,0,1-1.516-1.516" transform="translate(-107.073 -60.264)"/><rect class="e" width="39.999" height="6.245" transform="translate(0 5.086)"/><line class="f" x1="16.523" transform="translate(17.721 19.917)"/></g><line class="g" y2="14.732" transform="translate(48.653 23.664)"/><g transform="translate(51.107)"><path class="f" d="M164.177,45.556A11.7,11.7,0,0,0,150.72,38.1" transform="translate(-150.72 -37.844)"/><path class="f" d="M151.552,41.975a7.042,7.042,0,0,1,8.315,5.178" transform="translate(-150.578 -37.165)"/></g></g></svg>