<svg xmlns="http://www.w3.org/2000/svg" width="91" height="91" viewBox="0 0 91 91"><defs><style>.a,.b,.e{fill:none;}.b,.e{stroke:#ffb300;stroke-linecap:round;}.b{stroke-linejoin:round;stroke-width:2px;}.c{fill:#fff;}.d{fill:#ffb300;}.e{stroke-width:1.5px;}</style></defs><rect class="a" width="91" height="91"/><g transform="translate(-309.069 -15.418)"><g transform="translate(314.069 34.418)"><path class="b" d="M352.422,34.418a15.011,15.011,0,0,0-13.715,8.91,10.008,10.008,0,0,0-14.552,12.936,10.008,10.008,0,1,0-2.078,19.8" transform="translate(-312.069 -34.418)"/><path class="b" d="M376.266,44.466a10.01,10.01,0,0,1,1.068,11.071,10.008,10.008,0,1,1,2.078,19.8" transform="translate(-307.424 -33.691)"/><line class="b" x2="5.37" transform="translate(16.015 41.644)"/></g><g transform="translate(342.795 48.032)"><path class="c" d="M364.4,63.551V59.057a9.171,9.171,0,0,0-10.028-9.132,9.323,9.323,0,0,0-8.315,9.364V86.916h27.01a2.459,2.459,0,0,0,2.459-2.459V63.551Zm-2.223,0h-13.9V59.307a7.172,7.172,0,0,1,4.858-6.849,7.739,7.739,0,0,1,4.181,0,7.172,7.172,0,0,1,4.858,6.849Z" transform="translate(-340.336 -46.912)"/><path class="b" d="M340.722,84.645a2.472,2.472,0,0,0,2.472,2.472h24.944a2.472,2.472,0,0,0,2.472-2.472V63.752h-2.827V59.229a12.116,12.116,0,0,0-12.116-12.116h0A12.117,12.117,0,0,0,343.55,59.229v4.522h-2.828v16.06m23.333-16.06H347.108" transform="translate(-340.722 -47.113)"/><path class="d" d="M355.908,74.35l1.139,3.7a.747.747,0,0,1-.715.967h-2.976a.747.747,0,0,1-.714-.967l1.138-3.7a.733.733,0,0,0-.318-.853,2.761,2.761,0,1,1,2.776-.005A.74.74,0,0,0,355.908,74.35Z" transform="translate(-339.9 -45.577)"/><path class="e" d="M0,0V10.24" transform="translate(24.123 23.366)"/></g></g></svg>