<svg xmlns="http://www.w3.org/2000/svg" width="15.678" height="12.739" viewBox="0 0 15.678 12.739"><defs><style>.a{fill:#fff;}</style></defs><g transform="translate(-824.28 -1283.301)"><path class="a" d="M15.678,49.508a6.7,6.7,0,0,1-1.852.508,3.2,3.2,0,0,0,1.414-1.777,6.423,6.423,0,0,1-2.038.778,3.214,3.214,0,0,0-5.56,2.2,3.31,3.31,0,0,0,.074.733,9.1,9.1,0,0,1-6.625-3.362,3.215,3.215,0,0,0,.988,4.3,3.174,3.174,0,0,1-1.452-.4v.035A3.229,3.229,0,0,0,3.2,55.68a3.208,3.208,0,0,1-.843.106,2.842,2.842,0,0,1-.609-.055,3.245,3.245,0,0,0,3,2.239A6.458,6.458,0,0,1,.769,59.341,6.021,6.021,0,0,1,0,59.3a9.048,9.048,0,0,0,4.931,1.442,9.085,9.085,0,0,0,9.148-9.147c0-.142,0-.279-.012-.415A6.412,6.412,0,0,0,15.678,49.508Z" transform="translate(824.28 1235.301)"/></g></svg>