<svg xmlns="http://www.w3.org/2000/svg" width="91" height="91" viewBox="0 0 91 91"><defs><style>.a,.b{fill:none;}.b{stroke:#ffb300;stroke-linecap:round;stroke-linejoin:round;stroke-width:2px;}</style></defs><rect class="a" width="91" height="91"/><g transform="translate(6 6)"><path class="b" d="M562.222,48.009A30.042,30.042,0,0,1,593.43,44.4L589.874,36" transform="translate(-542.039 -36)"/><path class="b" d="M602.663,53.172a30.038,30.038,0,0,1,3.612,31.208l8.4-3.555" transform="translate(-535.089 -33.049)"/><path class="b" d="M589.341,98.657a30.138,30.138,0,0,1-20.284-1.822l3.554,8.4" transform="translate(-540.865 -25.545)"/><path class="b" d="M551.463,80.046A30.14,30.14,0,0,1,553.4,60.2L545,63.752" transform="translate(-544.999 -31.842)"/><path class="b" d="M555.677,87.491a30.028,30.028,0,0,1-2.94-4.521" transform="translate(-543.669 -27.928)"/><g transform="translate(14.656 14.691)"><path class="b" d="M606.92,67.275a25.087,25.087,0,1,1-17.275-17.743" transform="translate(-557.506 -48.537)"/><g transform="translate(12.951 7.631)"><path class="b" d="M585.64,64.528l2.592,3.632a3.9,3.9,0,0,1,1.072,3.5c-1.005,5.238-4.631,10.087-8.949,10.087h-.094c-4.318,0-7.943-4.849-8.949-10.087a3.9,3.9,0,0,1,1.073-3.5l2.592-3.632" transform="translate(-568.097 -53.42)"/><path class="b" d="M572.667,76.326a12.163,12.163,0,1,1,16.275-.148" transform="translate(-568.558 -55.049)"/><path class="b" d="M585.3,63.856a10.693,10.693,0,0,1-10.956.129" transform="translate(-567.564 -53.536)"/></g><g transform="translate(6.578 32.463)"><path class="b" d="M575.577,76.239l-5.425,3.417a29.6,29.6,0,0,0-7.033,6.179" transform="translate(-563.119 -76.239)"/><path class="b" d="M584.191,76.239l5.425,3.417a29.589,29.589,0,0,1,7,6.136" transform="translate(-559.498 -76.239)"/></g></g></g></svg>