<svg xmlns="http://www.w3.org/2000/svg" width="18.264" height="12.922" viewBox="0 0 18.264 12.922"><defs><style>.a{fill:#fff;}</style></defs><g transform="translate(-942.442 -1283.301)"><path class="a" d="M14.475,0H3.792A3.8,3.8,0,0,0,0,3.792V9.13a3.792,3.792,0,0,0,3.792,3.792H14.471A3.792,3.792,0,0,0,18.264,9.13V3.792A3.789,3.789,0,0,0,14.475,0ZM11.908,6.724l-5,2.382a.2.2,0,0,1-.285-.182V4.01a.2.2,0,0,1,.289-.178l5,2.532A.2.2,0,0,1,11.908,6.724Z" transform="translate(942.442 1283.301)"/></g></svg>