<svg xmlns="http://www.w3.org/2000/svg" width="17" height="31" viewBox="0 0 17 31"><defs><style>.a{fill:none;}.b{fill:#5e347c;}</style></defs><g transform="translate(1.498 8.403)"><rect class="a" width="17" height="31" transform="translate(-1.498 -8.403)"/><g transform="translate(0 7)"><path class="b" d="M26.293,3.081H21.961a1.044,1.044,0,0,0-1.006,1.078v9.7a1.044,1.044,0,0,0,1.006,1.078h4.332A1.044,1.044,0,0,0,27.3,13.855v-9.7A1.044,1.044,0,0,0,26.293,3.081ZM24.127,14.45a.475.475,0,1,1,.443-.474.459.459,0,0,1-.443.474Zm2.353-1.933a.382.382,0,0,1-.368.394H22.142a.382.382,0,0,1-.368-.394V4.408a.382.382,0,0,1,.368-.394h3.968a.382.382,0,0,1,.368.394Z" transform="translate(-17.15 -8.568)"/></g></g></svg>