<?xml version="1.0" encoding="UTF-8"?>
<svg width="24px" height="24px" viewBox="0 0 24 24" version="1.1" xmlns="http://www.w3.org/2000/svg" xmlns:xlink="http://www.w3.org/1999/xlink">
    <!-- Generator: Sketch 59.1 (86144) - https://sketch.com -->
    <title>• Icons / Outros / Contato Financeiro</title>
    <desc>Created with Sketch.</desc>
    <g id="•-Icons-/-Outros-/-Contato-Financeiro" stroke="none" stroke-width="1" fill="none" fill-rule="evenodd">
        <g id="dollar" transform="translate(4.000000, 4.000000)" fill-rule="nonzero">
            <path d="M8.03125,0 C3.6344375,0 0,3.571875 0,7.96875 C0,12.365625 3.6344375,16 8.03125,16 C12.4280625,16 16,12.365625 16,7.96875 C16,3.571875 12.4280625,0 8.03125,0 Z" id="Path" fill="#FEDB41"></path>
            <path d="M16,7.96875 C16,12.365625 12.4140549,16 8,16 L8,0 C12.4140549,0 16,3.571875 16,7.96875 Z" id="Path" fill="#FFCC33"></path>
            <path d="M8.03061224,2 C4.74279592,2 2,4.68160204 2,7.96938776 C2,11.2571735 4.74279592,14 8.03061224,14 C11.3184286,14 14,11.2571735 14,7.96938776 C14,4.68160204 11.3184286,2 8.03061224,2 Z" id="Path" fill="#FEA832"></path>
            <path d="M14,7.96938776 C14,11.2571735 11.3046769,14 8,14 L8,2 C11.3046769,2 14,4.68160204 14,7.96938776 Z" id="Path" fill="#FE9923"></path>
            <path d="M9.01973684,7.52941176 L8.52631579,7.52941176 L8.52631579,5.76470588 L9.01973684,5.76470588 C9.29608553,5.76470588 9.51315789,5.95879412 9.51315789,6.20588235 C9.51315789,6.78820588 10.5,6.78820588 10.5,6.20588235 C10.5,5.4735 9.83888158,4.88235294 9.01973684,4.88235294 L8.52631579,4.88235294 L8.52631579,4.44117647 C8.52631579,4.14997059 8.27960526,4 8.03289474,4 C7.78618421,4 7.53947368,4.14997059 7.53947368,4.44117647 L7.53947368,4.88235294 L6.98026316,4.88235294 C6.16111842,4.88235294 5.5,5.4735 5.5,6.20588235 L5.5,7.08823529 C5.5,7.82061765 6.16111842,8.41176471 6.98026316,8.41176471 L7.53947368,8.41176471 L7.53947368,10.2352941 L6.98026316,10.2352941 C6.70391447,10.2352941 6.48684211,10.0412059 6.48684211,9.79411765 C6.48684211,9.21179412 5.5,9.21179412 5.5,9.79411765 C5.5,10.5265 6.16111842,11.1176471 6.98026316,11.1176471 L7.53947368,11.1176471 L7.53947368,11.5588235 C7.53947368,11.8500294 7.78618421,12 8.03289474,12 C8.27960526,12 8.52631579,11.8500294 8.52631579,11.5588235 L8.52631579,11.1176471 L9.01973684,11.1176471 C9.83888158,11.1176471 10.5,10.5265 10.5,9.79411765 L10.5,8.85294118 C10.5,8.12055882 9.83888158,7.52941176 9.01973684,7.52941176 Z M7.53947368,7.52941176 L6.98026316,7.52941176 C6.70391447,7.52941176 6.48684211,7.33532353 6.48684211,7.08823529 L6.48684211,6.20588235 C6.48684211,5.95879412 6.70391447,5.76470588 6.98026316,5.76470588 L7.53947368,5.76470588 L7.53947368,7.52941176 Z M9.51315789,9.79411765 C9.51315789,10.0412059 9.29608553,10.2352941 9.01973684,10.2352941 L8.52631579,10.2352941 L8.52631579,8.41176471 L9.01973684,8.41176471 C9.29608553,8.41176471 9.51315789,8.60585294 9.51315789,8.85294118 L9.51315789,9.79411765 Z" id="Shape" fill="#FEDB41"></path>
        </g>
    </g>
</svg>