<svg xmlns="http://www.w3.org/2000/svg" width="17" height="31" viewBox="0 0 17 31"><defs><style>.a,.c{fill:none;}.b{fill:#fff;}.c{stroke:#5e347c;stroke-linecap:round;}.d,.e{stroke:none;}.e{fill:#5e347c;}</style></defs><g transform="translate(1.498 8.403)"><rect class="a" width="17" height="31" transform="translate(-1.498 -8.403)"/><g transform="translate(-1 -1)"><g class="b" transform="translate(2.584 4.945)"><path class="d" d="M 9.188063621520996 5.992094993591309 L 1.148503422737122 5.992094993591309 C 0.7909234762191772 5.992094993591309 0.500003457069397 5.731005191802979 0.500003457069397 5.410075187683105 L 0.500003457069397 1.082015156745911 C 0.500003457069397 0.7610951066017151 0.7909234762191772 0.5000051259994507 1.148503422737122 0.5000051259994507 L 9.188063621520996 0.5000051259994507 C 9.54564380645752 0.5000051259994507 9.836563110351562 0.7610951066017151 9.836563110351562 1.082015156745911 L 9.836563110351562 5.410075187683105 C 9.836563110351562 5.731005191802979 9.54564380645752 5.992094993591309 9.188063621520996 5.992094993591309 Z"/><path class="e" d="M 1.148503303527832 0.999995231628418 C 1.052043914794922 0.999995231628418 1.000003814697266 1.058215141296387 1.000003814697266 1.082015037536621 L 1.000003814697266 5.410075187683105 C 1.000003814697266 5.43387508392334 1.052043914794922 5.492084980010986 1.148503303527832 5.492084980010986 L 9.188063621520996 5.492084980010986 C 9.284523010253906 5.492084980010986 9.336563110351562 5.43387508392334 9.336563110351562 5.410075187683105 L 9.336563110351562 1.082015037536621 C 9.336563110351562 1.058215141296387 9.284523010253906 0.999995231628418 9.188063621520996 0.999995231628418 L 1.148503303527832 0.999995231628418 M 1.148503303527832 -4.76837158203125e-06 L 9.188063621520996 -4.76837158203125e-06 C 9.82236385345459 -4.76837158203125e-06 10.33656311035156 0.4844350814819336 10.33656311035156 1.082015037536621 L 10.33656311035156 5.410075187683105 C 10.33656311035156 6.007655143737793 9.82236385345459 6.492084980010986 9.188063621520996 6.492084980010986 L 1.148503303527832 6.492084980010986 C 0.5142030715942383 6.492084980010986 3.814697265625e-06 6.007655143737793 3.814697265625e-06 5.410075187683105 L 3.814697265625e-06 1.082015037536621 C 3.814697265625e-06 0.4844350814819336 0.5142030715942383 -4.76837158203125e-06 1.148503303527832 -4.76837158203125e-06 Z"/></g><line class="c" x2="3.521" y2="2.164" transform="translate(3.927 6.838)"/><line class="c" x1="3.521" y2="2.164" transform="translate(8.046 6.838)"/></g></g></svg>