<?xml version="1.0" encoding="UTF-8"?>
<svg width="24px" height="24px" viewBox="0 0 24 24" version="1.1" xmlns="http://www.w3.org/2000/svg" xmlns:xlink="http://www.w3.org/1999/xlink">
    <!-- Generator: Sketch 59.1 (86144) - https://sketch.com -->
    <title>• Icons / Outros / Contato Comercial</title>
    <desc>Created with Sketch.</desc>
    <defs>
        <polygon id="path-1" points="0 16 16 16 16 0 0 0"></polygon>
    </defs>
    <g id="•-Icons-/-Outros-/-Contato-Comercial" stroke="none" stroke-width="1" fill="none" fill-rule="evenodd">
        <g id="Group-19" transform="translate(4.000000, 4.000000)">
            <path d="M14,6 L1,6 L1,15.3939394 C1,15.7286667 1.27714762,16 1.61904762,16 L13.3809524,16 C13.7228524,16 14,15.7286667 14,15.3939394 L14,6 Z" id="Fill-1" fill="#FDE6FF"></path>
            <path d="M8,6 L8,16 L14.3333333,16 C14.7015333,16 15,15.7286667 15,15.3939394 L15,6 L8,6 Z" id="Fill-3" fill="#F1D1FF"></path>
            <mask id="mask-2" fill="white">
                <use xlink:href="#path-1"></use>
            </mask>
            <g id="Clip-6"></g>
            <polygon id="Fill-5" fill="#6A307F" mask="url(#mask-2)" points="5 16 8 16 8 11 5 11"></polygon>
            <polygon id="Fill-7" fill="#4E1C71" mask="url(#mask-2)" points="8 16 11 16 11 11 8 11"></polygon>
            <path d="M11.5555556,11 L4.44444444,11 C4.19899259,11 4,10.7761333 4,10.5 C4,10.2238667 4.19899259,10 4.44444444,10 L11.5555556,10 C11.8010074,10 12,10.2238667 12,10.5 C12,10.7761333 11.8010074,11 11.5555556,11" id="Fill-8" fill="#FDE975" mask="url(#mask-2)"></path>
            <path d="M11.5555556,10 L8,10 L8,11 L11.5555556,11 C11.8010074,11 12,10.7761333 12,10.5 C12,10.2238667 11.8010074,10 11.5555556,10" id="Fill-9" fill="#FFBA00" mask="url(#mask-2)"></path>
            <path d="M16,6 L0,6 L0,4.39102521 L1.8158125,0.387771388 C1.92284375,0.151827959 2.16003125,0 2.42159375,0 L13.578125,0 C13.8398125,0 14.0770937,0.151982413 14.1840625,0.388080295 L16,4.39698712 L16,6 Z" id="Fill-10" fill="#6A307F" mask="url(#mask-2)"></path>
            <path d="M4.99871875,0 L4,4.39344718 L4,6.02483159 C4.000125,7.11572384 4.8955,8 6,8 C7.1045625,8 8,7.11556951 8,6.02458466 L8,0 L4.99871875,0 Z" id="Fill-11" fill="#FDE975" mask="url(#mask-2)"></path>
            <path d="M14.1833103,0.387765583 C14.0762954,0.151859163 13.8389118,0 13.5771114,0 L11,0 L12.0065591,4.39326708 L12.0065591,6.19965035 C12.0971294,7.21710674 12.9685052,8.01337965 14.0257111,7.99982961 C15.125279,7.98575486 16,7.08080388 16,5.99513433 L16,4.39342141 L14.1833103,0.387765583 Z" id="Fill-12" fill="#FFBA00" mask="url(#mask-2)"></path>
            <path d="M10.9959459,0 L8,0 L8,6.02459228 C8,7.11557293 8.89359446,8 9.99588349,8 C11.0981413,8 11.991767,7.11557293 11.991767,6.02459228 C11.991767,6.08363845 11.9948855,6.14191298 12,6.19966279 L12,4.3932759 L10.9959459,0 Z" id="Fill-13" fill="#6A307F" mask="url(#mask-2)"></path>
            <path d="M0,5.7764275 C0,6.9805217 0.874375,7.98415035 1.9734375,7.9997946 C3.0901875,8.01571272 4,7.02878954 4,5.80911954 C4,7.01910174 4.8954375,8 6,8 C7.1045625,8 8,7.01910174 8,5.80911954 C8,7.01910174 8.8954375,8 10,8 C11.1045625,8 12,7.01910174 12,5.80911954 C12,7.02878954 12.9098125,8.01571272 14.0265625,7.9997946 C15.1256563,7.98418458 16,6.9805217 16,5.7764275 L16,4 L0,4 L0,5.7764275 Z" id="Fill-14" fill="#FF5A56" mask="url(#mask-2)"></path>
            <path d="M0,4 L0,5.77641571 C0,6.98052513 0.874375,7.98416646 1.9734375,7.99981091 C3.0901875,8.015695 4,7.02879358 4,5.80910817 L4,5.80938203 L4,4 L0,4 Z" id="Fill-15" fill="#4E1C71" mask="url(#mask-2)"></path>
            <path d="M12.0071518,4 L12,5.91541784 C12.0015303,5.88019184 12.0024984,5.84476045 12.0024984,5.80908942 C12.0024984,7.02878527 12.9117427,8.01569513 14.0277639,7.99981091 C15.1262024,7.98420056 16,6.98051641 16,5.77639668 L16,4 L12.0071518,4 Z" id="Fill-16" fill="#FF8C13" mask="url(#mask-2)"></path>
            <path d="M4,4 L4,5.8093559 C4.000125,7.01925611 4.8955,8 6,8 C7.1045625,8 8,7.01908495 8,5.80908204 L8,4 L4,4 Z" id="Fill-17" fill="#FFBA00" mask="url(#mask-2)"></path>
            <path d="M8,4 L8,5.80908204 C8,7.01908495 8.89439637,8 9.99767458,8 C11.0684594,8 11.9423171,7.07601458 11.9928833,5.91541003 L12,4 L8,4 Z" id="Fill-18" fill="#4E1C71" mask="url(#mask-2)"></path>
        </g>
    </g>
</svg>