<svg xmlns="http://www.w3.org/2000/svg" width="17" height="31" viewBox="0 0 17 31"><defs><style>.a{fill:none;}.b,.c{fill:#fff;}.b{stroke:#5e347c;}.d,.e{stroke:none;}.e{fill:#5e347c;}</style></defs><g transform="translate(1.498 8.403)"><rect class="a" width="17" height="31" transform="translate(-1.498 -8.403)"/><g transform="translate(0 -1)"><g class="b" transform="translate(4.472 2.378)"><circle class="d" cx="2.748" cy="2.748" r="2.748"/><circle class="a" cx="2.748" cy="2.748" r="2.248"/></g><g class="c" transform="translate(2.03 8.404)"><path class="d" d="M 9.240437507629395 4.383795261383057 L 0.5283331871032715 4.383795261383057 C 0.7772935628890991 2.201166868209839 2.635581493377686 0.499995231628418 4.883679389953613 0.499995231628418 C 7.132622241973877 0.499995231628418 8.991594314575195 2.201265335083008 9.240437507629395 4.383795261383057 Z"/><path class="e" d="M 8.6383056640625 3.883795261383057 C 8.196043014526367 2.225329399108887 6.680325031280518 0.999995231628418 4.883679389953613 0.999995231628418 C 3.087793350219727 0.999995231628418 1.572718381881714 2.225257158279419 1.130486130714417 3.883795261383057 L 8.6383056640625 3.883795261383057 M 9.768719673156738 4.883795261383057 L 9.768259048461914 4.883795261383057 L -6.402588041964918e-07 4.883795261383057 C -6.402588041964918e-07 2.190585136413574 2.190759420394897 -4.753494067699648e-06 4.883679389953613 -4.753494067699648e-06 C 7.57750940322876 -4.753494067699648e-06 9.768719673156738 2.190585136413574 9.768719673156738 4.883195400238037 L 9.768719673156738 4.883795261383057 Z"/></g></g></g></svg>